<svg xmlns="http://www.w3.org/2000/svg" viewBox="0 0 64 64" role="img" aria-labelledby="title desc">
  <title id="title">Video Translator</title>
  <desc id="desc">Overlapping mint and periwinkle speech cards with a play symbol and subtitles, representing video translated between languages.</desc>
  <defs>
    <linearGradient id="tile" x1="8" y1="4" x2="56" y2="64" gradientUnits="userSpaceOnUse">
      <stop stop-color="#20334D"/><stop offset="1" stop-color="#101B30"/>
    </linearGradient>
    <linearGradient id="mint" x1="14" y1="12" x2="42" y2="42" gradientUnits="userSpaceOnUse">
      <stop stop-color="#78F0D3"/><stop offset="1" stop-color="#35D5C6"/>
    </linearGradient>
    <linearGradient id="language" x1="28" y1="28" x2="52" y2="55" gradientUnits="userSpaceOnUse">
      <stop stop-color="#A7B1FF"/><stop offset="1" stop-color="#8190F5"/>
    </linearGradient>
  </defs>
  <rect x="1" y="1" width="62" height="62" rx="19" fill="url(#tile)" stroke="#35465E" stroke-width="1"/>
  <path d="M33 27h11a10 10 0 0 1 10 10v4a10 10 0 0 1-8 9v7l-10-6h-3a10 10 0 0 1-10-10v-4a10 10 0 0 1 10-10Z" fill="url(#language)"/>
  <path d="M32 44h12m-10 5h7" fill="none" stroke="#20334D" stroke-width="3" stroke-linecap="round"/>
  <path d="M21 12h15a10 10 0 0 1 10 10v8a10 10 0 0 1-10 10h-9l-12 8V38a10 10 0 0 1-4-8v-8a10 10 0 0 1 10-10Z" fill="#101B30" transform="translate(0 2)" opacity=".3"/>
  <path d="M21 12h15a10 10 0 0 1 10 10v8a10 10 0 0 1-10 10h-9l-12 8V38a10 10 0 0 1-4-8v-8a10 10 0 0 1 10-10Z" fill="url(#mint)"/>
  <path d="M24 21.2c0-1.1 1.2-1.8 2.2-1.2l8.6 5.5c.9.6.9 1.9 0 2.5l-8.6 5.5c-1 .6-2.2-.1-2.2-1.2Z" fill="#14253B"/>
</svg>
